<?xml version="1.0" encoding="UTF-8"?><svg id="Layer_1" xmlns="http://www.w3.org/2000/svg" viewBox="0 0 298.32 67.52"><defs><style>.cls-1{fill:#dde5e8;}.cls-2{fill:#48d951;}</style></defs><path class="cls-2" d="M71.95,0H11.71c-2.96,0-5.28,2.45-5.28,5.28v1.16h-1.16c-2.96,0-5.28,2.45-5.28,5.28v40.93c0,2.96,2.45,5.28,5.28,5.28h.77l-1.29,7.72c-.26,1.29,1.16,2.32,2.32,1.67l17.63-9.53h40.68c2.96,0,5.28-2.44,5.28-5.28v-1.16h1.16c2.96,0,5.28-2.44,5.28-5.28V5.41c.13-2.96-2.32-5.41-5.15-5.41ZM67.58,52.65c0,1.16-.9,2.06-2.06,2.06H24.33c-.26,0-.51.13-.77.13l-15.06,8.11,1.03-6.44c.13-1.03-.64-1.93-1.54-1.93h-2.7c-1.16,0-2.06-.9-2.06-2.06V11.84c0-1.16.9-2.06,2.06-2.06h60.24c1.16,0,2.06.9,2.06,2.06v40.8ZM74.01,46.21c0,1.16-.9,2.06-2.06,2.06h-1.16V11.84c0-2.96-2.45-5.28-5.28-5.28H9.65v-1.16c0-1.16.9-2.06,2.06-2.06h60.24c1.16,0,2.06.9,2.06,2.06v40.8Z"/><path class="cls-2" d="M16.28,25.97h21.37c.9,0,1.67-.77,1.67-1.67s-.77-1.67-1.67-1.67h-21.37c-.9,0-1.67.77-1.67,1.67s.77,1.67,1.67,1.67Z"/><path class="cls-2" d="M55.41,29.83H16.28c-.9,0-1.67.77-1.67,1.67s.77,1.67,1.67,1.67h39.13c.9,0,1.67-.77,1.67-1.67-.13-.9-.9-1.67-1.67-1.67Z"/><path class="cls-2" d="M55.41,36.91H16.28c-.9,0-1.67.77-1.67,1.67s.77,1.67,1.67,1.67h39.13c.9,0,1.67-.77,1.67-1.67s-.9-1.67-1.67-1.67Z"/><path class="cls-1" d="M119.77,26.38c.04-1.47.11-2.75.22-3.85-.03-.29-.09-.55-.18-.76-.09-.21-.25-.41-.46-.58-.21-.17-.52-.27-.92-.3-.43-.03-.76.03-1,.18-.24.15-.45.37-.64.66-1.02,1.44-1.98,2.8-2.9,4.09-.92,1.28-1.8,2.48-2.62,3.58-.83,1.11-1.62,2.12-2.38,3.04-.76.92-1.52,1.73-2.26,2.42-.56-.75-1.13-1.54-1.7-2.38-.57-.84-1.18-1.74-1.8-2.68-.63-.95-1.29-1.96-1.98-3.02-.69-1.07-1.44-2.22-2.24-3.44-.21-.29-.47-.49-.76-.58-.29-.09-.59-.14-.88-.14-.32,0-.57.06-.76.18-.19.12-.33.27-.42.44-.09.17-.17.37-.22.58-.13,1.63-.24,3.39-.32,5.29-.08,1.9-.12,3.83-.12,5.79s.03,3.86.1,5.69c.07,1.83.18,3.46.34,4.91.11.24.22.45.34.64.12.19.29.35.5.48.21.13.49.21.84.24.35,0,.63-.06.84-.18.21-.12.37-.27.46-.44.09-.17.15-.39.18-.66-.05-1.09-.1-2.2-.14-3.3-.04-1.11-.07-2.23-.1-3.36-.03-1.13-.04-2.27-.04-3.4s0-2.26.02-3.36c.01-1.11.05-2.21.1-3.3.69,1.07,1.38,2.08,2.06,3.04s1.36,1.88,2.04,2.76c.68.88,1.34,1.76,1.98,2.64.75.53,1.49.79,2.22.78.73-.01,1.42-.33,2.06-.94,1.17-1.07,2.37-2.4,3.58-4.01,1.21-1.6,2.45-3.3,3.71-5.09-.05,1.44-.1,2.95-.14,4.53-.04,1.58-.05,3.15-.02,4.73.03,1.58.07,3.07.14,4.49.07,1.42.15,2.67.26,3.77.08.24.19.45.32.64.13.19.31.35.52.48.21.13.49.2.84.2s.63-.07.84-.2c.21-.13.37-.29.46-.46.09-.17.17-.39.22-.66-.08-1.31-.14-2.77-.18-4.39-.04-1.62-.07-3.28-.08-4.99-.01-1.71-.01-3.4,0-5.07.01-1.67.04-3.24.08-4.71Z"/><path class="cls-1" d="M143.55,28.62c-.03-.35-.09-.63-.18-.86-.09-.23-.24-.43-.44-.6-.2-.17-.5-.27-.9-.3-.43-.03-.75.03-.98.18-.23.15-.42.37-.58.66-.08.89-.14,1.77-.2,2.65-.72-1.09-1.64-1.93-2.79-2.51-1.4-.71-3.04-1.06-4.91-1.06-1.36,0-2.63.27-3.81.82-1.18.55-2.2,1.3-3.08,2.24-.88.95-1.58,2.04-2.08,3.28-.51,1.24-.77,2.56-.8,3.95,0,1.34.22,2.59.66,3.77.44,1.18,1.06,2.2,1.86,3.06.8.87,1.76,1.55,2.86,2.04,1.11.49,2.34.74,3.71.74,1.44,0,2.77-.27,3.99-.8,1.21-.53,2.28-1.25,3.18-2.16.45-.45.85-.94,1.19-1.46.08,1.21.17,2.41.29,3.62.21.29.44.51.68.66.24.15.55.22.92.22.32,0,.57-.07.76-.2.19-.13.32-.28.4-.44.08-.16.15-.37.2-.64-.08-1.63-.15-3.17-.2-4.63-.05-1.46-.09-2.86-.1-4.23-.01-1.36.01-2.7.08-4.01.07-1.31.15-2.64.26-4.01ZM138.32,39.22c-.39.87-.89,1.64-1.52,2.32-.63.68-1.36,1.22-2.2,1.6-.84.39-1.7.58-2.58.58-1.18,0-2.2-.28-3.08-.84-.88-.56-1.56-1.34-2.04-2.32-.48-.99-.72-2.11-.72-3.36,0-.96.17-1.91.52-2.84.35-.93.81-1.78,1.4-2.54.59-.76,1.28-1.37,2.08-1.82.8-.45,1.64-.68,2.52-.68,1.2,0,2.26.25,3.18.76.92.51,1.66,1.29,2.2,2.34.55,1.06.82,2.41.82,4.07,0,.96-.19,1.88-.58,2.74Z"/><path class="cls-1" d="M163.27,32.61c-.36-.84-.79-1.59-1.28-2.24-.49-.65-1.04-1.22-1.64-1.7-.6-.48-1.25-.88-1.94-1.2-.96-.35-1.92-.5-2.88-.46s-1.88.21-2.76.52c-.88.31-1.7.73-2.44,1.28-.13.09-.25.19-.37.29.02-.22.03-.44.05-.67-.08-.29-.17-.55-.26-.76-.09-.21-.25-.4-.48-.56-.23-.16-.53-.24-.9-.24-.35,0-.63.05-.86.16-.23.11-.39.25-.48.42-.09.17-.17.37-.22.58-.13,1.63-.24,3.18-.32,4.67-.08,1.48-.12,2.93-.12,4.35s.03,2.82.1,4.23c.07,1.4.18,2.82.34,4.27.11.24.23.44.36.6.13.16.31.3.52.42.21.12.48.19.8.22.35,0,.63-.06.84-.18.21-.12.37-.27.46-.44.09-.17.15-.39.18-.66-.08-1.58-.15-3.1-.2-4.59-.05-1.48-.08-2.92-.08-4.33,0-.12,0-.23,0-.35.04-.2.09-.41.14-.61.25-1,.67-1.94,1.24-2.82.57-.88,1.34-1.63,2.3-2.24.83-.45,1.64-.68,2.42-.68s1.55.25,2.28.74c.73.49,1.38,1.29,1.94,2.38.64,1.1.99,2.62,1.06,4.57.07,1.95-.05,4.14-.34,6.57.03.32.07.58.14.78.07.2.2.4.4.6.2.2.49.35.86.46.43.08.77.07,1.02-.04.25-.11.44-.24.56-.4.12-.16.22-.39.3-.68.27-1.74.42-3.37.46-4.91.04-1.54-.07-3.04-.34-4.51-.21-1.04-.5-1.98-.86-2.82Z"/><path class="cls-1" d="M187.85,26.2c.05-1.48.12-2.76.2-3.83-.05-.29-.13-.55-.24-.76-.11-.21-.27-.4-.48-.56-.21-.16-.51-.24-.88-.24-.35-.03-.63.01-.86.12-.23.11-.39.24-.48.4-.09.16-.18.36-.26.6-.11,1.31-.2,2.77-.28,4.39-.06,1.15-.1,2.34-.14,3.55-.66-.86-1.47-1.54-2.44-2.03-1.4-.71-3.04-1.06-4.91-1.06-1.36,0-2.63.27-3.81.82-1.18.55-2.2,1.3-3.08,2.24-.88.95-1.58,2.04-2.08,3.28-.51,1.24-.77,2.56-.8,3.95,0,1.34.22,2.59.66,3.77.44,1.18,1.06,2.2,1.86,3.06.8.87,1.76,1.55,2.86,2.04,1.11.49,2.34.74,3.71.74,1.44,0,2.77-.27,3.99-.8,1.21-.53,2.28-1.25,3.18-2.16.37-.37.7-.76,1-1.17.06,1.07.13,2.04.21,2.9.11.27.23.49.36.66.13.17.31.33.54.46.23.13.53.2.9.2.32,0,.58-.06.78-.18.2-.12.34-.27.42-.44.08-.17.15-.38.2-.62-.08-1.31-.14-2.77-.18-4.39-.04-1.62-.07-3.3-.08-5.05-.01-1.75,0-3.47.02-5.15.03-1.68.07-3.26.12-4.75ZM182.82,39.22c-.39.87-.89,1.64-1.52,2.32-.63.68-1.36,1.22-2.2,1.6-.84.39-1.7.58-2.58.58-1.18,0-2.2-.28-3.08-.84-.88-.56-1.56-1.34-2.04-2.32-.48-.99-.72-2.11-.72-3.36,0-.96.17-1.91.52-2.84.35-.93.81-1.78,1.4-2.54.59-.76,1.28-1.37,2.08-1.82.8-.45,1.64-.68,2.52-.68,1.2,0,2.26.25,3.18.76.92.51,1.66,1.29,2.2,2.34.55,1.06.82,2.41.82,4.07,0,.96-.19,1.88-.58,2.74Z"/><path class="cls-1" d="M211.6,28.62c-.03-.35-.09-.63-.18-.86-.09-.23-.24-.43-.44-.6-.2-.17-.5-.27-.9-.3-.43-.03-.75.03-.98.18-.23.15-.42.37-.58.66-.08.89-.14,1.77-.2,2.65-.72-1.09-1.64-1.93-2.79-2.51-1.4-.71-3.04-1.06-4.91-1.06-1.36,0-2.63.27-3.81.82-1.18.55-2.2,1.3-3.08,2.24-.88.95-1.58,2.04-2.08,3.28-.51,1.24-.77,2.56-.8,3.95,0,1.34.22,2.59.66,3.77.44,1.18,1.06,2.2,1.86,3.06.8.87,1.76,1.55,2.86,2.04,1.11.49,2.34.74,3.7.74,1.44,0,2.77-.27,3.99-.8,1.21-.53,2.28-1.25,3.18-2.16.45-.45.85-.94,1.19-1.46.08,1.21.17,2.41.29,3.62.21.29.44.51.68.66.24.15.55.22.92.22.32,0,.57-.07.76-.2.19-.13.32-.28.4-.44.08-.16.15-.37.2-.64-.08-1.63-.15-3.17-.2-4.63-.05-1.46-.09-2.86-.1-4.23-.01-1.36.01-2.7.08-4.01.07-1.31.15-2.64.26-4.01ZM206.37,39.22c-.39.87-.89,1.64-1.52,2.32-.63.68-1.36,1.22-2.2,1.6-.84.39-1.7.58-2.58.58-1.18,0-2.2-.28-3.08-.84-.88-.56-1.56-1.34-2.04-2.32-.48-.99-.72-2.11-.72-3.36,0-.96.17-1.91.52-2.84.35-.93.81-1.78,1.4-2.54.59-.76,1.28-1.37,2.08-1.82.8-.45,1.64-.68,2.52-.68,1.2,0,2.26.25,3.18.76.92.51,1.66,1.29,2.2,2.34.55,1.06.82,2.41.82,4.07,0,.96-.19,1.88-.58,2.74Z"/><path class="cls-1" d="M233.15,42.48c-.16-.13-.34-.23-.54-.3-.2-.07-.39-.11-.56-.12-.17-.01-.38,0-.62.02-1.23.24-2.52.47-3.89.7-1.36.23-2.8.43-4.33.62-1.52.19-3.12.36-4.81.52-.19-3.63-.28-7.25-.28-10.86s.13-7.14.4-10.61c-.05-.35-.13-.63-.22-.84-.09-.21-.25-.41-.46-.6-.21-.19-.52-.29-.92-.32-.4-.05-.71-.01-.94.12-.23.13-.39.29-.48.48-.09.19-.15.43-.18.72-.16,1.71-.27,3.35-.34,4.93-.07,1.58-.11,3.11-.12,4.61-.01,1.5,0,2.98.02,4.45.03,1.47.07,2.94.12,4.43.05,1.48.12,3,.2,4.55.05.21.14.43.26.64.12.21.29.41.5.6.21.19.5.32.86.4.36.08.78.12,1.26.12,1.23-.05,2.44-.13,3.62-.24,1.19-.11,2.39-.24,3.61-.4,1.21-.16,2.44-.35,3.66-.56,1.23-.21,2.48-.44,3.77-.68.21-.13.38-.26.5-.38.12-.12.21-.3.26-.54.05-.24.04-.52-.04-.84-.05-.27-.16-.47-.32-.6Z"/><path class="cls-1" d="M238.52,20.81c-.64,0-1.12.17-1.42.5-.31.33-.46.82-.46,1.46,0,.53.15.99.46,1.36.31.37.78.56,1.42.56.51-.03.89-.12,1.16-.28.27-.16.45-.39.56-.68.11-.29.16-.61.16-.96,0-.53-.15-.99-.46-1.38-.31-.39-.78-.58-1.42-.58Z"/><path class="cls-1" d="M240,28.42c-.08-.29-.17-.55-.26-.76-.09-.21-.25-.4-.48-.56-.23-.16-.53-.24-.9-.24-.35,0-.63.05-.86.16-.23.11-.39.25-.48.42-.09.17-.17.37-.22.58-.13,1.63-.24,3.18-.32,4.67-.08,1.48-.12,2.93-.12,4.35s.03,2.82.1,4.23c.07,1.4.18,2.82.34,4.27.11.24.23.44.36.6.13.16.31.3.52.42.21.12.48.19.8.22.35,0,.63-.06.84-.18.21-.12.37-.27.46-.44.09-.17.15-.39.18-.66-.08-1.58-.15-3.1-.2-4.59-.05-1.48-.08-2.92-.08-4.33s.03-2.77.08-4.11c.05-1.33.13-2.68.24-4.05Z"/><path class="cls-1" d="M259.61,28.3c-.09-.11-.22-.21-.38-.32-2.38-.69-4.44-1.04-6.19-1.04s-3.17.25-4.27.76c-1.1.51-1.88,1.2-2.36,2.06-.48.87-.63,1.84-.44,2.9.13.83.45,1.6.96,2.3.51.71,1.11,1.36,1.8,1.96.69.6,1.41,1.16,2.14,1.68.73.52,1.4,1,2,1.44.6.44,1.03.86,1.3,1.26.67.96.77,1.7.3,2.2-.47.51-1.54.8-3.22.88-.83.05-1.63-.03-2.4-.24-.77-.21-1.46-.47-2.06-.78-.6-.31-1.25-.69-1.94-1.14-.21-.08-.39-.13-.54-.16-.15-.03-.29-.02-.44.02-.15.04-.29.14-.42.3-.13.13-.21.27-.22.4-.01.13,0,.25.06.36.05.11.12.23.2.36.85.88,1.86,1.58,3,2.08,1.15.51,2.32.85,3.52,1.02,1.2.17,2.34.2,3.42.08,1.08-.12,2.02-.37,2.8-.74.79-.37,1.3-.87,1.54-1.48.4-.93.43-1.87.1-2.8-.33-.93-.96-1.85-1.88-2.74-.92-.89-2.05-1.74-3.38-2.54-.93-.56-1.68-1.11-2.22-1.64-.55-.53-.91-1.05-1.08-1.54-.17-.49-.19-.96-.04-1.4.15-.44.45-.85.9-1.22.35-.27.79-.47,1.34-.6.55-.13,1.15-.22,1.8-.26.65-.04,1.31-.05,1.96-.04.65.01,1.25.04,1.8.08.55.04,1.14.1,1.78.18.19,0,.35-.03.48-.08.13-.05.25-.13.34-.24.09-.11.15-.24.18-.4.05-.21.05-.39-.02-.54-.07-.15-.15-.27-.24-.38Z"/><path class="cls-1" d="M276.35,27.9c-.17-.11-.35-.19-.52-.26-.17-.07-.37-.13-.58-.18-.86,0-1.76,0-2.72.02-.4,0-.8.01-1.2.02.01-.44.03-.87.04-1.3.05-1.48.12-2.76.2-3.83-.08-.29-.17-.55-.26-.76-.09-.21-.25-.4-.46-.56-.21-.16-.51-.24-.88-.24-.35-.03-.63.01-.86.12-.23.11-.39.24-.48.4-.09.16-.18.36-.26.6-.11,1.31-.2,2.77-.28,4.39-.02.4-.04.81-.06,1.23-.35,0-.69.01-1.03.02-.83.01-1.54.03-2.12.04-.59.01-.99.05-1.2.1-.19.05-.35.11-.5.18-.15.07-.26.18-.34.34-.08.16-.12.37-.12.64.03.27.13.49.3.66.17.17.37.31.6.4.23.09.5.15.82.18,1.07.02,2.24.04,3.51.07,0,.39-.02.78-.02,1.17-.03,1.74-.03,3.46-.02,5.19.01,1.72.06,3.35.14,4.89.08,1.54.17,2.88.28,4.03.08.27.19.49.32.66.13.17.31.33.54.46.23.13.53.2.9.2.32,0,.58-.06.78-.18.2-.12.34-.27.42-.44.08-.17.15-.38.2-.62-.08-1.31-.14-2.77-.18-4.39-.04-1.62-.07-3.3-.08-5.05-.01-1.75,0-3.47.02-5.15,0-.24,0-.47.01-.71,1.36.02,2.77.03,4.23.03.29-.03.53-.07.7-.12.17-.05.34-.18.5-.38.16-.2.24-.46.24-.78,0-.27-.05-.49-.16-.66-.11-.17-.25-.31-.42-.42Z"/><path class="cls-1" d="M297.98,36.63c-.01-1.36.01-2.7.08-4.01.07-1.31.15-2.64.26-4.01-.03-.35-.09-.63-.18-.86-.09-.23-.24-.43-.44-.6-.2-.17-.5-.27-.9-.3-.43-.03-.75.03-.98.18-.23.15-.42.37-.58.66-.08.89-.14,1.77-.2,2.65-.72-1.09-1.64-1.93-2.79-2.51-1.4-.71-3.04-1.06-4.91-1.06-1.36,0-2.63.27-3.81.82-1.18.55-2.2,1.3-3.08,2.24-.88.95-1.58,2.04-2.08,3.28-.51,1.24-.77,2.56-.8,3.95,0,1.34.22,2.59.66,3.77.44,1.18,1.06,2.2,1.86,3.06.8.87,1.76,1.55,2.86,2.04,1.11.49,2.34.74,3.7.74,1.44,0,2.77-.27,3.99-.8,1.21-.53,2.28-1.25,3.18-2.16.45-.45.85-.94,1.19-1.46.08,1.21.17,2.41.29,3.62.21.29.44.51.68.66.24.15.55.22.92.22.32,0,.57-.07.76-.2.19-.13.32-.28.4-.44.08-.16.15-.37.2-.64-.08-1.63-.15-3.17-.2-4.63-.05-1.46-.09-2.86-.1-4.23ZM293.09,39.22c-.39.87-.9,1.64-1.52,2.32-.63.68-1.36,1.22-2.2,1.6-.84.39-1.7.58-2.58.58-1.18,0-2.2-.28-3.08-.84-.88-.56-1.56-1.34-2.04-2.32-.48-.99-.72-2.11-.72-3.36,0-.96.17-1.91.52-2.84.35-.93.81-1.78,1.4-2.54.59-.76,1.28-1.37,2.08-1.82.8-.45,1.64-.68,2.52-.68,1.2,0,2.26.25,3.18.76.92.51,1.66,1.29,2.2,2.34.55,1.06.82,2.41.82,4.07,0,.96-.19,1.88-.58,2.74Z"/></svg>